<svg xmlns="http://www.w3.org/2000/svg" xmlns:xlink="http://www.w3.org/1999/xlink" id="Layer_1" x="0px" y="0px" viewBox="0 0 1008.5 164.1" style="enable-background:new 0 0 1008.5 164.1;" xml:space="preserve"><style type="text/css">	.st0{fill:#231F20;}	.st1{fill-rule:evenodd;clip-rule:evenodd;fill:#EA595B;}	.st2{fill-rule:evenodd;clip-rule:evenodd;fill:#52B9D7;}	.st3{fill-rule:evenodd;clip-rule:evenodd;fill:#FCD500;}</style><g>	<g>		<path class="st0" d="M275.3,66.2l-27.8,74c-2.5,6.8-5.2,13.3-10,16.9c-4.2,3.1-8.9,3.3-16.9,3.3v-15.6c3.7,0,6.3-0.2,8.3-1.6   c2.3-1.6,3.9-4.1,5.9-9.9l-25.1-67.1h16.4l16.2,46.2L259,66.2H275.3z"></path>		<path class="st0" d="M478.1,91.7v39.7h-16.6V92.9c0-4.7-0.8-7.6-3.1-10.1c-2.1-2.3-5.2-3.5-8.3-3.5c-3.1,0-6.3,1.3-8.3,3.6   c-2.5,2.9-3,5.8-3,9v39.5H422V92.9c0-4.7-0.8-7.6-3.1-10.1c-2.1-2.3-5.2-3.5-8.3-3.5c-3.1,0-6.3,1.3-8.3,3.6c-2.5,2.9-3,5.8-3,9   v39.5h-16.5V66.2h14.5v7c4.6-5.4,11.6-8.6,18.8-8.6c5.4,0,12.3,1.7,16.4,6c1.2,1.3,2.3,2.7,3,4c4.6-6.3,12.1-10,20-10   c5.4,0,12.3,1.7,16.4,6C477.5,76.6,478.1,83.4,478.1,91.7z"></path>		<path class="st0" d="M529.4,131.4v-8c-6.5,7.5-12.4,9.8-22.4,9.8c-13.2,0-21.5-8-21.5-20.1c0-8.4,3.3-15,11.5-18.7   c8.2-3.7,22-5.2,30.5-6.4c-1.1-4.7-5.1-8.1-12.5-8.1c-6.4,0-12.1,2.4-16.3,6.2l-9.4-10.9c6.9-6.5,15.2-10.7,26.9-10.7   c7.1,0,14.4,3.1,19.1,7.1c6.4,5.4,8.6,12.8,8.6,21v38.8H529.4z M527.5,100.8c-3.9,0.7-10.3,2.1-16.4,3.4c-4.9,1.1-9.4,3.4-9.4,7.7   c0,4.5,4,7.7,9.3,7.7c6.3,0,11.5-3.1,14.4-7.5C527.6,108.6,527.5,104.1,527.5,100.8z"></path>		<path class="st0" d="M603.9,131.4h-52.5v-13.9l31-37h-31V66.2h52.5v14.2L573,117.2h30.9V131.4z"></path>		<path class="st0" d="M619.6,122.4c-5.5-6.8-8-14.6-8-23.5c0-9.2,2.8-17.3,8-23.5c6-7.1,15.4-10.9,25-10.9c9.7,0,18.9,3.6,25,10.9   c5.8,6.9,8.1,14.7,8.1,23.5c0,9.3-2.5,16.6-8.1,23.5c-6.2,7.2-15.2,10.9-25,10.9C634.9,133.2,625.6,129.5,619.6,122.4z    M656.5,85.2c-2.7-3.6-7.1-5.4-11.9-5.4c-4.8,0-9.3,1.8-11.9,5.4c-2.8,3.6-3.6,8.7-3.6,13.6s0.8,9.9,3.6,13.5   c2.7,3.6,7.1,5.6,11.9,5.6c4.8,0,9.3-1.9,11.9-5.6c2.8-3.6,3.7-8.6,3.7-13.5S659.3,88.8,656.5,85.2z"></path>		<path class="st0" d="M746.1,99.9v31.5h-16.6v-30.8c0-6.8-1-13.5-4.3-17.1c-2.3-2.5-5.8-3.9-10.3-3.7c-3,0.1-5.6,1-7.7,2.5   c-2.4,1.8-4.1,4.7-4.8,8.3c-0.6,2.9-0.7,8-0.7,12.4v28.4H685V66.2h14.5V73c0.2-0.2,0.6-0.6,0.8-1c4.2-5.1,10.9-7.2,16.8-7.6   c7.7-0.5,15.6,0.8,21.8,7C746.1,78.4,746.1,89.8,746.1,99.9z"></path>		<path class="st0" d="M927.8,66.2v65.2h-14.5v-6.8c-0.2,0.2-0.6,0.6-0.8,1c-4.2,5.1-10.9,7.2-16.8,7.6c-7.7,0.5-15.6-0.8-21.8-7   c-7.1-7-7.1-18.3-7.1-28.5V66.2h16.6V97c0,6.8,1,13.5,4.3,17.1c2.3,2.5,5.8,3.9,10.3,3.7c3-0.1,5.5-1,7.7-2.5   c2.4-1.8,4.1-4.7,4.8-8.3c0.6-2.9,0.7-8,0.7-12.4V66.2H927.8z"></path>		<path class="st0" d="M1001,66.2l-27.8,74c-2.5,6.8-5.2,13.3-10,16.9c-4.2,3.1-8.9,3.3-16.9,3.3v-15.6c3.7,0,6.3-0.2,8.3-1.6   c2.3-1.6,3.9-4.1,5.9-9.9l-25.1-67.1h16.4l16.2,46.2l16.6-46.2H1001z"></path>		<polygon class="st0" points="159.3,102.2 130.6,44.5 115.9,44.5 115.9,131.4 131.2,131.4 131.2,79.6 156.4,131.4 162.2,131.4    187.4,79.5 187.4,131.4 202.8,131.4 202.8,44.5 188,44.5   "></polygon>		<path class="st0" d="M324.2,44.5l-26.5,86.9h16.9l5.5-18.1h32.7l5.5,18.1h16.9l-26.5-86.9H324.2z M324.7,98l11.6-38L348,98H324.7z   "></path>		<path class="st0" d="M823,85.5v12.7h16.9c-0.6,4.3-2.8,9.7-6.6,13c-3.7,3.3-8.4,5.2-14,5.1c-7.1,0.1-14-2.8-18-8.2   c-4.2-5.5-5.4-12.8-5.6-20c0.1-7.2,1.3-14.6,5.6-20c4-5.4,10.9-8.3,18-8.2c5.7-0.1,10.5,1.7,14,4.9c3.6,3.4,5.1,6.8,6.2,10.4   l18-2.5c-1.9-8.3-5.7-15.7-13.5-22c-7.1-5.8-15.7-7.8-25.7-7.8c-12.5,0-23.4,4.6-31.1,14c-7.1,8.6-9.9,19.3-9.9,31.2   c0,11.5,3,22,10,31c7.1,9.2,18.2,14.2,31,14.2c11.8,0,22.9-3.7,30.6-12.7c6.3-7.4,10.5-17.6,10.5-30c0-0.4-0.1-4-0.2-5.1H823z"></path>	</g>	<path class="st1" d="M7.4,74.9h18.5v56.6H7.4V74.9z"></path>	<path class="st2" d="M40.8,60h18.5v71.5H40.8V60z"></path>	<path class="st3" d="M74.2,45.1h18.5v86.4H74.2V45.1z"></path></g></svg>